<svg xmlns="http://www.w3.org/2000/svg" xmlns:xlink="http://www.w3.org/1999/xlink" width="500" zoomAndPan="magnify" viewBox="0 0 375 374.999991" height="500" preserveAspectRatio="xMidYMid meet" version="1.2"><defs><clipPath id="ee47efcb07"><path d="M 195 57 L 245 57 L 245 101 L 195 101 Z M 195 57 "/></clipPath><clipPath id="a5ef508580"><path d="M 99.933594 51.578125 L 232.886719 28.171875 L 244.328125 93.171875 L 111.375 116.578125 Z M 99.933594 51.578125 "/></clipPath><clipPath id="10a640a5d6"><path d="M 99.933594 51.578125 L 232.886719 28.171875 L 244.328125 93.171875 L 111.375 116.578125 Z M 99.933594 51.578125 "/></clipPath><clipPath id="fee944c2b3"><path d="M 152 75 L 196 75 L 196 105 L 152 105 Z M 152 75 "/></clipPath><clipPath id="43ae58c1bc"><path d="M 99.933594 51.578125 L 232.886719 28.171875 L 244.328125 93.171875 L 111.375 116.578125 Z M 99.933594 51.578125 "/></clipPath><clipPath id="b8c9cf5ce2"><path d="M 99.933594 51.578125 L 232.886719 28.171875 L 244.328125 93.171875 L 111.375 116.578125 Z M 99.933594 51.578125 "/></clipPath><clipPath id="9a53205d06"><path d="M 133 34 L 205 34 L 205 64 L 133 64 Z M 133 34 "/></clipPath><clipPath id="d25cc07d3c"><path d="M 99.933594 51.578125 L 232.886719 28.171875 L 244.328125 93.171875 L 111.375 116.578125 Z M 99.933594 51.578125 "/></clipPath><clipPath id="74423f246c"><path d="M 99.933594 51.578125 L 232.886719 28.171875 L 244.328125 93.171875 L 111.375 116.578125 Z M 99.933594 51.578125 "/></clipPath><clipPath id="46ba4aa4c4"><path d="M 115 65 L 154 65 L 154 113 L 115 113 Z M 115 65 "/></clipPath><clipPath id="fb1577d61c"><path d="M 99.933594 51.578125 L 232.886719 28.171875 L 244.328125 93.171875 L 111.375 116.578125 Z M 99.933594 51.578125 "/></clipPath><clipPath id="68c97cd665"><path d="M 99.933594 51.578125 L 232.886719 28.171875 L 244.328125 93.171875 L 111.375 116.578125 Z M 99.933594 51.578125 "/></clipPath><clipPath id="9bf7d0ac93"><path d="M 106 81 L 129 81 L 129 116 L 106 116 Z M 106 81 "/></clipPath><clipPath id="9cbe3aa617"><path d="M 99.933594 51.578125 L 232.886719 28.171875 L 244.328125 93.171875 L 111.375 116.578125 Z M 99.933594 51.578125 "/></clipPath><clipPath id="a4d1b585d1"><path d="M 99.933594 51.578125 L 232.886719 28.171875 L 244.328125 93.171875 L 111.375 116.578125 Z M 99.933594 51.578125 "/></clipPath><clipPath id="a3785dc226"><path d="M 74 99 L 251 99 L 251 235 L 74 235 Z M 74 99 "/></clipPath><clipPath id="db7d1caecb"><path d="M 74.015625 113.878906 L 246.855469 83.457031 L 270.519531 217.886719 L 97.679688 248.3125 Z M 74.015625 113.878906 "/></clipPath><clipPath id="521e0f4bcf"><path d="M 74.015625 113.878906 L 246.855469 83.457031 L 270.519531 217.886719 L 97.679688 248.3125 Z M 74.015625 113.878906 "/></clipPath></defs><g id="58b460bb91"><g clip-rule="nonzero" clip-path="url(#ee47efcb07)"><g clip-rule="nonzero" clip-path="url(#a5ef508580)"><g clip-rule="nonzero" clip-path="url(#10a640a5d6)"><path style=" stroke:none;fill-rule:nonzero;fill:#7ed957;fill-opacity:1;" d="M 198.957031 98.019531 L 242.460938 90.359375 L 242.648438 91.421875 C 242.667969 91.535156 242.59375 91.648438 242.476562 91.667969 L 199.390625 99.25 C 199.277344 99.269531 199.164062 99.195312 199.144531 99.082031 Z M 224.003906 89.78125 C 224.332031 89.722656 224.664062 89.894531 224.804688 90.195312 L 225.195312 91.015625 C 225.410156 91.464844 225.136719 91.988281 224.652344 92.074219 L 220.890625 92.738281 L 220.480469 90.402344 Z M 215.410156 92.742188 L 215.496094 91.835938 C 215.527344 91.5 215.78125 91.230469 216.109375 91.171875 L 219.632812 90.550781 L 220.042969 92.886719 L 216.285156 93.546875 C 215.796875 93.632812 215.363281 93.234375 215.410156 92.742188 Z M 235.660156 81.601562 L 202.359375 87.460938 L 198.542969 65.761719 L 231.84375 59.902344 Z M 197.453125 97.527344 C 197.453125 97.542969 197.453125 97.558594 197.457031 97.570312 L 197.765625 99.324219 C 197.917969 100.199219 198.753906 100.789062 199.632812 100.632812 L 242.71875 93.046875 C 243.597656 92.894531 244.183594 92.058594 244.03125 91.179688 L 243.722656 89.425781 C 243.71875 89.414062 243.714844 89.398438 243.710938 89.386719 C 243.707031 89.378906 243.707031 89.371094 243.707031 89.363281 C 243.699219 89.339844 243.691406 89.3125 243.679688 89.285156 C 243.679688 89.285156 243.675781 89.28125 243.675781 89.28125 C 243.664062 89.257812 243.65625 89.234375 243.644531 89.214844 C 243.640625 89.207031 243.636719 89.199219 243.636719 89.195312 C 243.621094 89.175781 243.613281 89.15625 243.597656 89.136719 C 243.597656 89.132812 243.59375 89.132812 243.59375 89.128906 L 238.617188 82.496094 L 234.398438 58.53125 C 234.269531 57.796875 233.566406 57.300781 232.824219 57.433594 L 196.769531 63.777344 C 196.03125 63.910156 195.539062 64.609375 195.671875 65.351562 L 199.886719 89.3125 L 197.476562 97.246094 C 197.476562 97.25 197.476562 97.253906 197.476562 97.257812 C 197.46875 97.28125 197.460938 97.300781 197.460938 97.324219 C 197.457031 97.328125 197.457031 97.335938 197.457031 97.34375 C 197.453125 97.367188 197.449219 97.390625 197.445312 97.421875 C 197.445312 97.421875 197.449219 97.425781 197.449219 97.425781 C 197.445312 97.453125 197.445312 97.480469 197.449219 97.507812 C 197.449219 97.515625 197.449219 97.519531 197.453125 97.527344 "/></g></g></g><g clip-rule="nonzero" clip-path="url(#fee944c2b3)"><g clip-rule="nonzero" clip-path="url(#43ae58c1bc)"><g clip-rule="nonzero" clip-path="url(#b8c9cf5ce2)"><path style=" stroke:none;fill-rule:nonzero;fill:#7ed957;fill-opacity:1;" d="M 171.355469 85.085938 C 171.121094 83.746094 171.78125 82.457031 172.914062 81.84375 C 173.203125 81.683594 173.519531 81.570312 173.859375 81.511719 C 174.203125 81.449219 174.539062 81.449219 174.863281 81.5 C 176.132812 81.691406 177.199219 82.675781 177.4375 84.015625 C 177.671875 85.355469 177.003906 86.640625 175.878906 87.257812 C 175.589844 87.417969 175.273438 87.53125 174.929688 87.589844 C 174.589844 87.652344 174.25 87.652344 173.929688 87.601562 C 172.652344 87.40625 171.589844 86.425781 171.355469 85.085938 Z M 155.589844 82.765625 L 152.867188 83.246094 L 154.609375 93.128906 L 172 90.066406 L 173.203125 96.890625 C 168.78125 98.144531 165.640625 100.132812 165.433594 101.921875 C 165.414062 102.070312 165.421875 102.21875 165.445312 102.367188 C 165.523438 102.796875 165.78125 103.179688 166.191406 103.511719 C 166.261719 103.566406 166.332031 103.617188 166.410156 103.667969 C 166.71875 103.878906 167.089844 104.0625 167.523438 104.222656 C 169.789062 105.058594 173.652344 105.207031 177.902344 104.457031 C 182.148438 103.710938 185.726562 102.253906 187.574219 100.691406 C 187.921875 100.394531 188.214844 100.09375 188.433594 99.792969 C 188.488281 99.71875 188.535156 99.644531 188.582031 99.570312 C 188.855469 99.117188 188.96875 98.671875 188.890625 98.238281 C 188.867188 98.09375 188.816406 97.953125 188.75 97.816406 C 187.949219 96.207031 184.316406 95.40625 179.730469 95.742188 L 178.527344 88.917969 L 195.960938 85.847656 L 194.21875 75.96875 L 155.589844 82.765625 "/></g></g></g><g clip-rule="nonzero" clip-path="url(#9a53205d06)"><g clip-rule="nonzero" clip-path="url(#d25cc07d3c)"><g clip-rule="nonzero" clip-path="url(#74423f246c)"><path style=" stroke:none;fill-rule:nonzero;fill:#7ed957;fill-opacity:1;" d="M 196.039062 39.253906 L 138.585938 49.367188 L 140.957031 62.835938 L 136.503906 63.621094 L 134.003906 49.417969 C 133.957031 49.160156 133.9375 48.90625 133.949219 48.652344 C 133.992188 46.898438 135.269531 45.359375 137.066406 45.042969 L 195.984375 34.671875 C 197.785156 34.355469 199.511719 35.367188 200.15625 37 C 200.246094 37.234375 200.320312 37.480469 200.367188 37.734375 L 204.136719 59.164062 L 199.683594 59.945312 L 196.039062 39.253906 "/></g></g></g><g clip-rule="nonzero" clip-path="url(#46ba4aa4c4)"><g clip-rule="nonzero" clip-path="url(#fb1577d61c)"><g clip-rule="nonzero" clip-path="url(#68c97cd665)"><path style=" stroke:none;fill-rule:nonzero;fill:#7ed957;fill-opacity:1;" d="M 136.734375 109.105469 C 136.589844 108.367188 137.074219 107.652344 137.808594 107.511719 C 138.542969 107.367188 139.257812 107.847656 139.402344 108.582031 C 139.546875 109.320312 139.066406 110.03125 138.328125 110.175781 C 137.59375 110.320312 136.878906 109.839844 136.734375 109.105469 Z M 134.363281 69.960938 C 134.441406 70.414062 134.136719 70.847656 133.683594 70.929688 L 129.242188 71.710938 C 128.785156 71.789062 128.355469 71.484375 128.277344 71.035156 C 128.199219 70.582031 128.496094 70.148438 128.953125 70.070312 L 133.394531 69.285156 C 133.847656 69.207031 134.28125 69.511719 134.363281 69.960938 Z M 132.058594 109.53125 C 132.242188 110.558594 132.175781 111.59375 131.882812 112.558594 L 151.53125 109.101562 C 151.917969 109.03125 152.265625 108.875 152.566406 108.664062 C 152.601562 108.636719 152.632812 108.613281 152.664062 108.589844 C 152.679688 108.578125 152.695312 108.5625 152.710938 108.550781 C 152.746094 108.527344 152.777344 108.5 152.804688 108.472656 C 152.835938 108.441406 152.863281 108.414062 152.894531 108.386719 C 152.992188 108.285156 153.082031 108.175781 153.164062 108.0625 C 153.535156 107.53125 153.707031 106.859375 153.585938 106.171875 L 146.8125 67.691406 C 146.570312 66.316406 145.257812 65.398438 143.882812 65.640625 L 117.851562 70.222656 C 116.476562 70.464844 115.558594 71.777344 115.800781 73.152344 L 116.75 78.546875 L 119.582031 78.050781 L 119.089844 75.253906 L 144.4375 70.792969 L 150.296875 104.066406 L 131.675781 107.34375 L 132.058594 109.53125 "/></g></g></g><g clip-rule="nonzero" clip-path="url(#9bf7d0ac93)"><g clip-rule="nonzero" clip-path="url(#9cbe3aa617)"><g clip-rule="nonzero" clip-path="url(#a4d1b585d1)"><path style=" stroke:none;fill-rule:nonzero;fill:#7ed957;fill-opacity:1;" d="M 108 87.886719 L 122.960938 85.253906 L 127.125 108.914062 L 112.164062 111.546875 Z M 117.988281 112.78125 C 117.941406 112.507812 118.089844 112.242188 118.316406 112.203125 L 121.570312 111.628906 C 121.792969 111.589844 122.027344 111.789062 122.074219 112.0625 L 122.089844 112.148438 C 122.140625 112.425781 121.988281 112.6875 121.761719 112.726562 L 118.511719 113.300781 C 118.28125 113.339844 118.054688 113.144531 118.003906 112.867188 Z M 117.09375 84.023438 C 117.140625 84.285156 116.960938 84.539062 116.699219 84.582031 L 113.65625 85.121094 C 113.390625 85.164062 113.140625 84.988281 113.09375 84.726562 C 113.046875 84.464844 113.222656 84.210938 113.488281 84.164062 L 116.53125 83.628906 C 116.792969 83.582031 117.050781 83.757812 117.09375 84.023438 Z M 106.1875 86.886719 L 110.804688 113.101562 C 111.105469 114.816406 112.59375 115.992188 114.121094 115.722656 L 126.714844 113.503906 C 128.238281 113.238281 129.238281 111.625 128.9375 109.910156 L 124.324219 83.695312 C 124.023438 81.980469 122.53125 80.808594 121.007812 81.078125 L 108.414062 83.292969 C 106.882812 83.5625 105.886719 85.175781 106.1875 86.886719 "/></g></g></g><g clip-rule="nonzero" clip-path="url(#a3785dc226)"><g clip-rule="nonzero" clip-path="url(#db7d1caecb)"><g clip-rule="nonzero" clip-path="url(#521e0f4bcf)"><path style=" stroke:none;fill-rule:nonzero;fill:#7ed957;fill-opacity:1;" d="M 100.695312 109.640625 L 100.53125 109.671875 L 100.410156 109.691406 L 99.710938 109.65625 L 78.113281 113.394531 L 77.628906 113.480469 C 76.707031 113.757812 75.984375 114.292969 75.449219 115.089844 C 74.792969 116.019531 74.566406 117.046875 74.769531 118.171875 C 74.828125 118.519531 74.9375 118.859375 75.089844 119.179688 L 75.269531 119.507812 C 75.480469 119.875 75.738281 120.203125 76.046875 120.492188 C 76.359375 120.777344 76.703125 121.011719 77.085938 121.191406 C 77.46875 121.371094 77.871094 121.488281 78.289062 121.542969 C 78.710938 121.601562 79.125 121.589844 79.542969 121.515625 L 92.90625 119.164062 C 94.554688 118.847656 96.113281 119.09375 97.582031 119.90625 C 98.703125 120.550781 99.570312 121.445312 100.183594 122.582031 L 108.417969 138.800781 L 133.257812 188.21875 C 133.519531 188.722656 133.796875 189.222656 134.058594 189.644531 L 146.765625 214.632812 C 146.765625 214.632812 146.765625 214.632812 146.777344 214.710938 L 146.800781 214.832031 L 147.09375 215.4375 C 147.304688 215.710938 147.539062 215.957031 147.804688 216.175781 C 147.972656 216.332031 148.160156 216.464844 148.359375 216.578125 L 148.488281 216.667969 C 148.5625 216.695312 148.632812 216.734375 148.695312 216.785156 L 148.832031 216.761719 L 149.171875 216.90625 L 149.597656 217.019531 L 149.859375 217.066406 L 150.160156 217.015625 L 150.40625 216.972656 L 150.558594 216.945312 L 150.664062 216.925781 L 151.378906 216.894531 L 154.632812 216.320312 C 154.742188 216.300781 154.851562 216.292969 154.964844 216.300781 C 155.074219 216.304688 155.183594 216.328125 155.289062 216.359375 C 155.398438 216.394531 155.496094 216.441406 155.589844 216.5 C 155.6875 216.558594 155.773438 216.628906 155.847656 216.710938 C 155.925781 216.792969 155.992188 216.882812 156.042969 216.980469 C 156.097656 217.078125 156.140625 217.179688 156.167969 217.289062 C 156.195312 217.394531 156.210938 217.503906 156.210938 217.617188 C 156.210938 217.730469 156.199219 217.839844 156.171875 217.945312 C 156.050781 218.488281 155.960938 219.03125 155.90625 219.582031 C 155.851562 220.132812 155.828125 220.683594 155.84375 221.238281 C 155.855469 221.789062 155.902344 222.339844 155.980469 222.886719 C 156.0625 223.433594 156.175781 223.976562 156.324219 224.507812 C 156.46875 225.042969 156.648438 225.566406 156.859375 226.074219 C 157.070312 226.585938 157.3125 227.082031 157.585938 227.566406 C 157.859375 228.046875 158.160156 228.507812 158.488281 228.953125 C 158.820312 229.398438 159.175781 229.820312 159.554688 230.222656 C 159.9375 230.621094 160.34375 230.996094 160.769531 231.347656 C 161.199219 231.699219 161.644531 232.023438 162.113281 232.320312 C 162.582031 232.613281 163.066406 232.878906 163.566406 233.117188 C 164.066406 233.351562 164.578125 233.554688 165.105469 233.730469 C 165.628906 233.902344 166.164062 234.042969 166.707031 234.148438 C 167.25 234.257812 167.796875 234.328125 168.347656 234.371094 C 168.898438 234.410156 169.453125 234.414062 170.003906 234.386719 C 170.558594 234.359375 171.105469 234.296875 171.652344 234.199219 C 172.195312 234.105469 172.734375 233.976562 173.261719 233.8125 C 173.789062 233.652344 174.308594 233.457031 174.8125 233.230469 C 175.316406 233.003906 175.808594 232.75 176.28125 232.464844 C 176.753906 232.179688 177.207031 231.863281 177.644531 231.523438 C 178.078125 231.179688 178.492188 230.8125 178.878906 230.421875 C 179.269531 230.027344 179.632812 229.613281 179.972656 229.175781 C 180.3125 228.738281 180.621094 228.28125 180.90625 227.804688 C 181.1875 227.328125 181.4375 226.835938 181.660156 226.332031 C 181.882812 225.824219 182.070312 225.304688 182.230469 224.773438 C 182.386719 224.246094 182.511719 223.707031 182.605469 223.160156 C 182.695312 222.617188 182.753906 222.066406 182.777344 221.515625 C 182.800781 220.960938 182.792969 220.410156 182.75 219.859375 C 182.703125 219.304688 182.625 218.757812 182.515625 218.21875 C 182.402344 217.675781 182.261719 217.140625 182.082031 216.617188 C 181.90625 216.09375 181.699219 215.582031 181.457031 215.085938 C 181.21875 214.585938 180.949219 214.105469 180.648438 213.636719 C 180.378906 213.238281 180.339844 212.816406 180.535156 212.371094 C 180.726562 211.925781 181.0625 211.65625 181.539062 211.570312 L 209.847656 206.585938 C 210.328125 206.503906 210.734375 206.640625 211.0625 207 C 211.398438 207.347656 211.507812 207.757812 211.390625 208.226562 C 211.277344 208.710938 211.195312 209.199219 211.136719 209.695312 C 211.078125 210.1875 211.050781 210.683594 211.046875 211.183594 C 211.042969 211.679688 211.070312 212.175781 211.121094 212.667969 C 211.175781 213.164062 211.253906 213.652344 211.359375 214.140625 C 211.46875 214.625 211.601562 215.101562 211.761719 215.574219 C 211.917969 216.046875 212.105469 216.507812 212.316406 216.957031 C 212.527344 217.40625 212.761719 217.84375 213.019531 218.269531 C 213.28125 218.691406 213.5625 219.101562 213.867188 219.496094 C 214.167969 219.886719 214.496094 220.261719 214.839844 220.621094 C 215.1875 220.976562 215.550781 221.316406 215.933594 221.632812 C 216.316406 221.949219 216.71875 222.242188 217.132812 222.515625 C 217.546875 222.789062 217.976562 223.039062 218.421875 223.261719 C 218.863281 223.488281 219.320312 223.6875 219.785156 223.863281 C 220.25 224.039062 220.722656 224.1875 221.207031 224.308594 C 221.6875 224.429688 222.175781 224.527344 222.667969 224.59375 C 223.160156 224.664062 223.65625 224.703125 224.152344 224.71875 C 224.648438 224.730469 225.144531 224.71875 225.640625 224.675781 C 226.136719 224.636719 226.628906 224.566406 227.117188 224.472656 C 227.605469 224.375 228.085938 224.253906 228.558594 224.105469 C 229.035156 223.957031 229.5 223.78125 229.953125 223.582031 C 230.410156 223.378906 230.851562 223.15625 231.28125 222.90625 C 231.710938 222.65625 232.125 222.382812 232.527344 222.089844 C 232.925781 221.792969 233.308594 221.476562 233.675781 221.140625 C 234.039062 220.800781 234.382812 220.445312 234.710938 220.070312 C 235.035156 219.691406 235.339844 219.300781 235.621094 218.890625 C 235.902344 218.480469 236.160156 218.058594 236.398438 217.617188 C 236.632812 217.179688 236.84375 216.730469 237.027344 216.269531 C 237.214844 215.808594 237.371094 215.339844 237.503906 214.859375 C 237.640625 214.378906 237.746094 213.894531 237.824219 213.402344 C 237.90625 212.914062 237.957031 212.417969 237.980469 211.921875 C 238.007812 211.425781 238.003906 210.929688 237.972656 210.433594 C 237.945312 209.9375 237.886719 209.445312 237.800781 208.953125 C 237.484375 207.125 236.8125 205.433594 235.78125 203.886719 C 235.664062 203.695312 235.597656 203.488281 235.578125 203.265625 C 235.5625 203.042969 235.597656 202.828125 235.6875 202.621094 C 235.777344 202.414062 235.90625 202.242188 236.082031 202.097656 C 236.253906 201.957031 236.453125 201.863281 236.671875 201.816406 L 239.117188 201.386719 C 239.386719 201.339844 239.644531 201.265625 239.898438 201.167969 C 240.148438 201.070312 240.390625 200.949219 240.617188 200.804688 C 240.847656 200.660156 241.058594 200.492188 241.253906 200.304688 C 241.449219 200.117188 241.625 199.914062 241.78125 199.691406 C 241.933594 199.472656 242.066406 199.238281 242.175781 198.988281 C 242.285156 198.742188 242.371094 198.484375 242.429688 198.222656 C 242.488281 197.957031 242.519531 197.6875 242.523438 197.417969 C 242.53125 197.148438 242.511719 196.878906 242.464844 196.613281 C 242.417969 196.347656 242.34375 196.085938 242.246094 195.835938 C 242.148438 195.582031 242.027344 195.34375 241.882812 195.113281 C 241.734375 194.886719 241.570312 194.675781 241.382812 194.476562 C 241.195312 194.28125 240.992188 194.109375 240.769531 193.953125 C 240.546875 193.796875 240.3125 193.664062 240.066406 193.554688 C 239.816406 193.445312 239.5625 193.363281 239.296875 193.304688 C 239.035156 193.246094 238.765625 193.214844 238.496094 193.207031 C 238.226562 193.199219 237.957031 193.222656 237.691406 193.269531 L 161.605469 206.785156 L 158.109375 207.402344 C 157.402344 207.542969 156.6875 207.566406 155.972656 207.476562 C 155.253906 207.386719 154.570312 207.191406 153.914062 206.882812 C 153.261719 206.574219 152.671875 206.171875 152.148438 205.675781 C 151.625 205.179688 151.1875 204.613281 150.84375 203.980469 L 150.828125 203.886719 L 147.636719 197.945312 C 147.433594 197.542969 147.429688 197.144531 147.628906 196.738281 C 147.824219 196.332031 148.148438 196.085938 148.59375 196.003906 L 235.722656 180.667969 C 240.285156 179.867188 242.789062 176.289062 243.695312 168.886719 L 250.601562 110.179688 C 250.785156 108.683594 250.632812 107.21875 250.144531 105.792969 C 249.660156 104.363281 248.890625 103.109375 247.835938 102.03125 C 246.871094 101.035156 245.738281 100.292969 244.441406 99.804688 C 243.140625 99.316406 241.800781 99.132812 240.417969 99.246094 L 110.417969 122.128906 C 110.125 122.179688 109.847656 122.140625 109.578125 122.007812 C 109.3125 121.875 109.113281 121.675781 108.976562 121.410156 L 104.300781 112.203125 L 104.277344 112.082031 C 104.277344 112.054688 104.273438 112.03125 104.265625 112.007812 L 103.96875 111.398438 C 103.75 111.117188 103.5 110.863281 103.222656 110.636719 C 103.050781 110.484375 102.867188 110.351562 102.667969 110.234375 L 102.515625 110.167969 L 102.304688 110.046875 L 102.167969 110.070312 C 102.050781 110.011719 101.933594 109.960938 101.8125 109.914062 L 101.386719 109.738281 L 101.109375 109.675781 L 101.105469 109.113281 L 101.03125 109.660156 Z M 223.246094 204.792969 C 223.699219 204.710938 224.15625 204.675781 224.617188 204.6875 C 225.078125 204.699219 225.535156 204.753906 225.984375 204.851562 C 226.433594 204.953125 226.871094 205.097656 227.292969 205.28125 C 227.714844 205.46875 228.117188 205.691406 228.492188 205.957031 C 228.871094 206.222656 229.21875 206.519531 229.539062 206.855469 C 229.855469 207.1875 230.140625 207.546875 230.386719 207.9375 C 230.636719 208.328125 230.84375 208.734375 231.007812 209.164062 C 231.175781 209.597656 231.300781 210.039062 231.378906 210.492188 C 231.460938 210.945312 231.496094 211.402344 231.484375 211.863281 C 231.476562 212.324219 231.417969 212.78125 231.320312 213.230469 C 231.21875 213.683594 231.078125 214.117188 230.890625 214.539062 C 230.703125 214.960938 230.480469 215.363281 230.214844 215.738281 C 229.949219 216.117188 229.652344 216.464844 229.316406 216.785156 C 228.984375 217.101562 228.625 217.386719 228.234375 217.632812 C 227.847656 217.882812 227.4375 218.089844 227.007812 218.257812 C 226.578125 218.421875 226.132812 218.546875 225.679688 218.625 C 225.226562 218.707031 224.769531 218.742188 224.308594 218.730469 C 223.847656 218.722656 223.390625 218.667969 222.941406 218.566406 C 222.492188 218.464844 222.054688 218.324219 221.632812 218.136719 C 221.210938 217.953125 220.808594 217.726562 220.433594 217.460938 C 220.054688 217.195312 219.707031 216.898438 219.386719 216.566406 C 219.070312 216.230469 218.785156 215.871094 218.539062 215.480469 C 218.289062 215.09375 218.082031 214.683594 217.917969 214.253906 C 217.75 213.824219 217.625 213.382812 217.546875 212.925781 C 217.464844 212.472656 217.429688 212.015625 217.441406 211.554688 C 217.449219 211.09375 217.507812 210.636719 217.605469 210.1875 C 217.707031 209.738281 217.847656 209.300781 218.035156 208.878906 C 218.222656 208.457031 218.445312 208.058594 218.710938 207.679688 C 218.976562 207.300781 219.273438 206.953125 219.605469 206.632812 C 219.941406 206.316406 220.300781 206.03125 220.691406 205.785156 C 221.078125 205.539062 221.488281 205.328125 221.917969 205.164062 C 222.347656 204.996094 222.792969 204.871094 223.246094 204.792969 Z M 168.042969 214.507812 C 168.496094 214.429688 168.957031 214.394531 169.417969 214.40625 C 169.878906 214.414062 170.332031 214.46875 170.785156 214.570312 C 171.234375 214.667969 171.671875 214.8125 172.09375 215 C 172.515625 215.183594 172.914062 215.410156 173.292969 215.675781 C 173.667969 215.9375 174.019531 216.238281 174.335938 216.570312 C 174.65625 216.90625 174.9375 217.265625 175.1875 217.65625 C 175.433594 218.042969 175.640625 218.453125 175.808594 218.882812 C 175.976562 219.3125 176.097656 219.753906 176.179688 220.207031 C 176.257812 220.664062 176.292969 221.121094 176.285156 221.582031 C 176.273438 222.042969 176.21875 222.5 176.117188 222.949219 C 176.019531 223.398438 175.875 223.835938 175.6875 224.257812 C 175.503906 224.679688 175.277344 225.078125 175.015625 225.457031 C 174.75 225.835938 174.449219 226.183594 174.117188 226.5 C 173.785156 226.820312 173.421875 227.105469 173.035156 227.351562 C 172.644531 227.597656 172.234375 227.804688 171.804688 227.972656 C 171.375 228.140625 170.933594 228.265625 170.480469 228.34375 C 170.023438 228.421875 169.566406 228.457031 169.105469 228.449219 C 168.644531 228.4375 168.1875 228.382812 167.738281 228.285156 C 167.289062 228.183594 166.851562 228.039062 166.429688 227.855469 C 166.007812 227.667969 165.609375 227.445312 165.230469 227.179688 C 164.851562 226.914062 164.503906 226.613281 164.1875 226.28125 C 163.867188 225.949219 163.585938 225.585938 163.335938 225.199219 C 163.089844 224.808594 162.882812 224.398438 162.714844 223.96875 C 162.546875 223.539062 162.425781 223.097656 162.34375 222.644531 C 162.265625 222.1875 162.230469 221.726562 162.238281 221.261719 C 162.25 220.800781 162.304688 220.339844 162.40625 219.890625 C 162.507812 219.4375 162.65625 219 162.84375 218.574219 C 163.03125 218.152344 163.257812 217.75 163.527344 217.371094 C 163.792969 216.992188 164.097656 216.644531 164.433594 216.324219 C 164.769531 216.007812 165.136719 215.722656 165.527344 215.476562 C 165.921875 215.230469 166.335938 215.023438 166.769531 214.859375 C 167.203125 214.695312 167.648438 214.574219 168.105469 214.5 Z M 168.042969 214.507812 "/></g></g></g><g style="fill:#7ed957;fill-opacity:1;"><g transform="translate(122.525662, 277.160726)"><path style="stroke:none" d="M 13.6875 -13.828125 L 23.15625 -24.359375 L 24.671875 -24.359375 L 24.671875 0 L 19.796875 0 L 19.828125 -13.390625 L 13.6875 -6.953125 L 7.546875 -13.390625 L 7.546875 0 L 2.6875 0 L 2.6875 -24.359375 L 4.234375 -24.359375 Z M 13.6875 -13.828125 "/></g></g><g style="fill:#7ed957;fill-opacity:1;"><g transform="translate(149.91058, 277.160726)"><path style="stroke:none" d="M 14.234375 0.328125 C 12.171875 0.328125 10.363281 -0.015625 8.8125 -0.703125 C 7.257812 -1.398438 5.96875 -2.332031 4.9375 -3.5 C 3.90625 -4.675781 3.128906 -6.003906 2.609375 -7.484375 C 2.097656 -8.960938 1.84375 -10.476562 1.84375 -12.03125 C 1.84375 -13.582031 2.097656 -15.097656 2.609375 -16.578125 C 3.128906 -18.054688 3.90625 -19.378906 4.9375 -20.546875 C 5.96875 -21.722656 7.257812 -22.660156 8.8125 -23.359375 C 10.363281 -24.054688 12.171875 -24.40625 14.234375 -24.40625 C 16.285156 -24.40625 18.085938 -24.054688 19.640625 -23.359375 C 21.203125 -22.660156 22.5 -21.722656 23.53125 -20.546875 C 24.5625 -19.378906 25.332031 -18.054688 25.84375 -16.578125 C 26.351562 -15.097656 26.609375 -13.582031 26.609375 -12.03125 C 26.609375 -10.476562 26.351562 -8.960938 25.84375 -7.484375 C 25.332031 -6.003906 24.5625 -4.675781 23.53125 -3.5 C 22.5 -2.332031 21.203125 -1.398438 19.640625 -0.703125 C 18.085938 -0.015625 16.285156 0.328125 14.234375 0.328125 Z M 14.234375 -4.625 C 15.597656 -4.625 16.769531 -4.894531 17.75 -5.4375 C 18.738281 -5.976562 19.519531 -6.6875 20.09375 -7.5625 C 20.675781 -8.445312 21.066406 -9.414062 21.265625 -10.46875 C 21.472656 -11.519531 21.472656 -12.570312 21.265625 -13.625 C 21.066406 -14.675781 20.675781 -15.644531 20.09375 -16.53125 C 19.519531 -17.414062 18.738281 -18.125 17.75 -18.65625 C 16.769531 -19.195312 15.597656 -19.46875 14.234375 -19.46875 C 12.867188 -19.46875 11.691406 -19.195312 10.703125 -18.65625 C 9.722656 -18.125 8.941406 -17.414062 8.359375 -16.53125 C 7.773438 -15.644531 7.378906 -14.675781 7.171875 -13.625 C 6.972656 -12.570312 6.972656 -11.519531 7.171875 -10.46875 C 7.378906 -9.414062 7.773438 -8.445312 8.359375 -7.5625 C 8.941406 -6.6875 9.722656 -5.976562 10.703125 -5.4375 C 11.691406 -4.894531 12.867188 -4.625 14.234375 -4.625 Z M 14.234375 -4.625 "/></g></g><g style="fill:#7ed957;fill-opacity:1;"><g transform="translate(178.335856, 277.160726)"><path style="stroke:none" d="M 2.6875 0 L 2.6875 -24.03125 L 12.1875 -24.03125 C 13.613281 -24.03125 14.84375 -23.71875 15.875 -23.09375 C 16.90625 -22.46875 17.691406 -21.601562 18.234375 -20.5 C 18.785156 -19.40625 19.039062 -18.15625 19 -16.75 C 18.976562 -15.851562 18.789062 -14.96875 18.4375 -14.09375 C 18.09375 -13.21875 17.539062 -12.523438 16.78125 -12.015625 C 17.5625 -11.472656 18.171875 -10.769531 18.609375 -9.90625 C 19.046875 -9.050781 19.265625 -8.15625 19.265625 -7.21875 C 19.265625 -5.875 18.945312 -4.660156 18.3125 -3.578125 C 17.675781 -2.492188 16.816406 -1.625 15.734375 -0.96875 C 14.660156 -0.320312 13.476562 0 12.1875 0 Z M 7.515625 -19.234375 L 7.515625 -14.390625 L 11.78125 -14.390625 C 12.476562 -14.390625 13.019531 -14.628906 13.40625 -15.109375 C 13.800781 -15.597656 14 -16.164062 14 -16.8125 C 14 -17.488281 13.800781 -18.0625 13.40625 -18.53125 C 13.019531 -19 12.476562 -19.234375 11.78125 -19.234375 Z M 7.515625 -9.59375 L 7.515625 -4.796875 L 11.78125 -4.796875 C 12.476562 -4.796875 13.054688 -5.03125 13.515625 -5.5 C 13.972656 -5.96875 14.203125 -6.539062 14.203125 -7.21875 C 14.203125 -7.882812 13.972656 -8.445312 13.515625 -8.90625 C 13.054688 -9.363281 12.476562 -9.59375 11.78125 -9.59375 Z M 7.515625 -9.59375 "/></g></g><g style="fill:#7ed957;fill-opacity:1;"><g transform="translate(199.176581, 277.160726)"><path style="stroke:none" d="M 7.484375 0 L 2.6875 0 L 2.6875 -24 L 7.484375 -24 Z M 7.484375 0 "/></g></g><g style="fill:#7ed957;fill-opacity:1;"><g transform="translate(209.378805, 277.160726)"><path style="stroke:none" d="M 14.671875 -19.203125 L 7.484375 -19.203125 L 7.484375 -14.390625 L 13.59375 -14.390625 L 13.59375 -9.59375 L 7.484375 -9.59375 L 7.484375 0 L 2.6875 0 L 2.6875 -24 L 14.671875 -24 Z M 14.671875 -19.203125 "/></g></g><g style="fill:#7ed957;fill-opacity:1;"><g transform="translate(225.319775, 277.160726)"><path style="stroke:none" d="M 7.484375 0 L 2.6875 0 L 2.6875 -24 L 7.484375 -24 Z M 7.484375 0 "/></g></g><g style="fill:#7ed957;fill-opacity:1;"><g transform="translate(235.521999, 277.160726)"><path style="stroke:none" d="M 15.109375 0 L 2.6875 0 L 2.6875 -24 L 14.703125 -24 L 14.703125 -19.203125 L 7.484375 -19.203125 L 7.484375 -14.390625 L 13.796875 -14.390625 L 13.796875 -9.59375 L 7.484375 -9.59375 L 7.484375 -4.796875 L 15.109375 -4.796875 Z M 15.109375 0 "/></g></g></g></svg>